HIERARCHY
ROOT hip
{
  OFFSET 0 0 0
  CHANNELS 6 Xposition Yposition Zposition Zrotation Yrotation Xrotation
  JOINT abdomen
  {
    OFFSET 0 20.6881 -0.73152
    CHANNELS 3 Zrotation Xrotation Yrotation
    JOINT chest
    {
      OFFSET 0 11.7043 -0.48768
      CHANNELS 3 Zrotation Xrotation Yrotation
      JOINT neck
      {
        OFFSET 0 22.1894 -2.19456
        CHANNELS 3 Zrotation Xrotation Yrotation
        JOINT head
        {
          OFFSET -0.24384 7.07133 1.2192
          CHANNELS 3 Zrotation Xrotation Yrotation
          JOINT leftEye
          {
            OFFSET 4.14528 8.04674 8.04672
            CHANNELS 3 Zrotation Xrotation Yrotation
            End Site
            {
              OFFSET 1 0 0
            }
          }
          JOINT rightEye
          {
            OFFSET -3.6576 8.04674 8.04672
            CHANNELS 3 Zrotation Xrotation Yrotation
            End Site
            {
              OFFSET 1 0 0
            }
          }
        }
      }
      JOINT rCollar
      {
        OFFSET -2.68224 19.2634 -4.8768
        CHANNELS 3 Zrotation Xrotation Yrotation
        JOINT rShldr
        {
          OFFSET -8.77824 -1.95073 1.46304
          CHANNELS 3 Zrotation Xrotation Yrotation
          JOINT rForeArm
          {
            OFFSET -28.1742 -1.7115 0.48768
            CHANNELS 3 Zrotation Xrotation Yrotation
            JOINT rHand
            {
              OFFSET -22.5879 0.773209 7.07136
              CHANNELS 3 Zrotation Xrotation Yrotation
              JOINT rThumb1
              {
                OFFSET -1.2192 -0.487915 3.41376
                CHANNELS 3 Zrotation Xrotation Yrotation
                JOINT rThumb2
                {
                  OFFSET -3.37035 -0.52449 3.41376
                  CHANNELS 3 Zrotation Xrotation Yrotation
                  End Site
                  {
                    OFFSET -1.78271 -1.18214 1.43049
                  }
                }
              }
              JOINT rIndex1
              {
                OFFSET -7.75947 0.938293 5.60832
                CHANNELS 3 Zrotation Xrotation Yrotation
                JOINT rIndex2
                {
                  OFFSET -2.54057 -0.884171 1.56538
                  CHANNELS 3 Zrotation Xrotation Yrotation
                  End Site
                  {
                    OFFSET -1.62519 -0.234802 1.16502
                  }
                }
              }
              JOINT rMid1
              {
                OFFSET -8.24714 1.18213 3.41376
                CHANNELS 3 Zrotation Xrotation Yrotation
                JOINT rMid2
                {
                  OFFSET -3.10165 -0.590103 1.0647
                  CHANNELS 3 Zrotation Xrotation Yrotation
                  End Site
                  {
                    OFFSET -2.48547 -0.328903 0.83742
                  }
                }
              }
              JOINT rRing1
              {
                OFFSET -8.82822 0.546677 1.51678
                CHANNELS 3 Zrotation Xrotation Yrotation
                JOINT rRing2
                {
                  OFFSET -2.60934 -0.819778 -0.0198488
                  CHANNELS 3 Zrotation Xrotation Yrotation
                  End Site
                  {
                    OFFSET -2.33842 -0.294052 0.168128
                  }
                }
              }
              JOINT rPinky1
              {
                OFFSET -8.27202 -0.0477905 -0.4584
                CHANNELS 3 Zrotation Xrotation Yrotation
                JOINT rPinky2
                {
                  OFFSET -1.82734 -0.647385 -0.700984
                  CHANNELS 3 Zrotation Xrotation Yrotation
                  End Site
                  {
                    OFFSET -1.69225 -0.51767 -0.607171
                  }
                }
              }
            }
          }
        }
      }
      JOINT lCollar
      {
        OFFSET 2.68224 19.2634 -4.8768
        CHANNELS 3 Zrotation Xrotation Yrotation
        JOINT lShldr
        {
          OFFSET 8.77824 -1.95073 1.46304
          CHANNELS 3 Zrotation Xrotation Yrotation
          JOINT lForeArm
          {
            OFFSET 28.1742 -1.7115 0.48768
            CHANNELS 3 Zrotation Xrotation Yrotation
            JOINT lHand
            {
              OFFSET 22.5879 0.773209 7.07136
              CHANNELS 3 Zrotation Xrotation Yrotation
              JOINT lThumb1
              {
                OFFSET 1.2192 -0.487915 3.41376
                CHANNELS 3 Zrotation Xrotation Yrotation
                JOINT lThumb2
                {
                  OFFSET 3.37035 -0.52449 3.41376
                  CHANNELS 3 Zrotation Xrotation Yrotation
                  End Site
                  {
                    OFFSET 1.78271 -1.18214 1.43049
                  }
                }
              }
              JOINT lIndex1
              {
                OFFSET 7.75947 0.938293 5.60832
                CHANNELS 3 Zrotation Xrotation Yrotation
                JOINT lIndex2
                {
                  OFFSET 2.54057 -0.884171 1.56538
                  CHANNELS 3 Zrotation Xrotation Yrotation
                  End Site
                  {
                    OFFSET 1.62519 -0.234802 1.16502
                  }
                }
              }
              JOINT lMid1
              {
                OFFSET 8.24714 1.18213 3.41376
                CHANNELS 3 Zrotation Xrotation Yrotation
                JOINT lMid2
                {
                  OFFSET 3.10165 -0.590103 1.0647
                  CHANNELS 3 Zrotation Xrotation Yrotation
                  End Site
                  {
                    OFFSET 2.48547 -0.328903 0.83742
                  }
                }
              }
              JOINT lRing1
              {
                OFFSET 8.82822 0.546677 1.51678
                CHANNELS 3 Zrotation Xrotation Yrotation
                JOINT lRing2
                {
                  OFFSET 2.60934 -0.819778 -0.0198488
                  CHANNELS 3 Zrotation Xrotation Yrotation
                  End Site
                  {
                    OFFSET 2.33842 -0.294052 0.168128
                  }
                }
              }
              JOINT lPinky1
              {
                OFFSET 8.27202 -0.0477905 -0.4584
                CHANNELS 3 Zrotation Xrotation Yrotation
                JOINT lPinky2
                {
                  OFFSET 1.82734 -0.647385 -0.700984
                  CHANNELS 3 Zrotation Xrotation Yrotation
                  End Site
                  {
                    OFFSET 1.69225 -0.51767 -0.607171
                  }
                }
              }
            }
          }
        }
      }
    }
  }
  JOINT rButtock
  {
    OFFSET -8.77824 4.35084 1.2192
    CHANNELS 3 Zrotation Xrotation Yrotation
    JOINT rThigh
    {
      OFFSET 0 -1.70687 -2.19456
      CHANNELS 3 Zrotation Xrotation Yrotation
      JOINT rShin
      {
        OFFSET 0 -36.8199 0.73152
        CHANNELS 3 Zrotation Xrotation Yrotation
        JOINT rFoot
        {
          OFFSET 0.73152 -45.1104 -5.12064
          CHANNELS 3 Zrotation Xrotation Yrotation
          End Site
          {
            OFFSET -1.1221 -3.69964 12.103
          }
        }
      }
    }
  }
  JOINT lButtock
  {
    OFFSET 8.77824 4.35084 1.2192
    CHANNELS 3 Zrotation Xrotation Yrotation
    JOINT lThigh
    {
      OFFSET 0 -1.70687 -2.19456
      CHANNELS 3 Zrotation Xrotation Yrotation
      JOINT lShin
      {
        OFFSET 0 -36.8199 0.73152
        CHANNELS 3 Zrotation Xrotation Yrotation
        JOINT lFoot
        {
          OFFSET -0.73152 -45.1104 -5.12064
          CHANNELS 3 Zrotation Xrotation Yrotation
          End Site
          {
            OFFSET 1.1221 -3.69964 12.103
          }
        }
      }
    }
  }
}
MOTION
Frames:	9
Frame Time:	0.00833333
6.7987 82.6806 -36.9812 -8.002 2.0623 6.8603 -1.41657 15.0351 -1.97382 2.86891 -6.62723 -0.483205 8.44229 -2.20537 2.22954 -11.8612 -11.5619 0.554995 -0.0 0.0 0.0 -0.0 0.0 0.0 1.67896e-13 -3.18097e-14 6.9556e-14 3.80067 -33.028 -15.545 -14.3112 -7.20833 26.1823 -0.0018116 -1.21394 -0.170634 1.31816e-09 1.89415e-10 6.77513e-11 2.27604e-09 3.27508e-10 1.15912e-10 1.31817e-09 1.89421e-10 6.77467e-11 7.73091 5.47488 0.417314 1.31816e-09 1.89421e-10 6.77554e-11 2.90554 0.965183 0.102902 1.31817e-09 1.8942e-10 6.77533e-11 10.2786 0.731801 0.0259123 1.31815e-09 1.89422e-10 6.77626e-11 2.22167 -0.733487 -0.20892 1.67867e-13 -3.18264e-14 6.93355e-14 -34.2966 -25.3604 5.0802 15.9185 -8.6117 -29.5005 0.117064 -9.71045 1.37807 3.62031e-10 3.03227e-10 -1.51442e-11 6.25411e-10 5.24913e-10 -2.43862e-11 3.62028e-10 3.03228e-10 -1.51234e-11 -7.73091 5.47488 -0.417314 3.62032e-10 3.03231e-10 -1.51422e-11 -2.90554 0.965183 -0.102902 3.62025e-10 3.0323e-10 -1.51365e-11 -10.2786 0.731801 -0.0259123 3.62027e-10 3.03228e-10 -1.51405e-11 -2.22167 -0.733487 0.20892 -2.03217e-16 0.0 -3.88251e-19 0.339374 -0.417395 -0.0647023 -0.127824 25.128 0.404452 -2.932 -4.09269 -17.1778 2.03217e-16 0.0 3.88251e-19 16.9846 -38.0659 4.71295 0.256353 34.5161 -0.367294 0.455737 4.17258 11.4259
6.89026 82.7723 -36.4963 -8.2081 2.2616 6.9053 -2.00887 14.9459 -2.156 2.87549 -6.63232 -0.557114 8.42046 -2.18005 2.22961 -11.1803 -11.3374 0.657591 -0.0 0.0 0.0 -0.0 0.0 0.0 1.73467e-13 -8.26834e-14 6.39093e-14 3.79754 -33.0557 -15.6475 -14.2842 -7.18606 26.1276 -0.00183415 -1.22278 -0.171877 1.52621e-09 -5.55484e-11 3.92417e-11 2.6361e-09 -9.66889e-11 6.57556e-11 1.52622e-09 -5.5542e-11 3.92385e-11 7.73091 5.47488 0.417314 1.52621e-09 -5.55411e-11 3.9248e-11 2.90554 0.965183 0.102902 1.52622e-09 -5.55417e-11 3.92457e-11 10.2786 0.731801 0.0259123 1.5262e-09 -5.55412e-11 3.92576e-11 2.22167 -0.733487 -0.20892 1.73424e-13 -8.27055e-14 6.36608e-14 -34.6912 -25.2995 4.8249 15.885 -8.58077 -29.43 0.116746 -9.69746 1.37619 -2.32371e-11 3.78709e-11 -9.26368e-11 -4.03259e-11 6.65022e-11 -1.60221e-10 -2.32419e-11 3.78717e-11 -9.26178e-11 -7.73091 5.47488 -0.417314 -2.32369e-11 3.78743e-11 -9.26368e-11 -2.90554 0.965183 -0.102902 -2.32437e-11 3.78739e-11 -9.26297e-11 -10.2786 0.731801 -0.0259123 -2.32417e-11 3.78721e-11 -9.26337e-11 -2.22167 -0.733487 0.20892 -2.03217e-16 0.0 -3.88251e-19 0.409886 -0.549016 -0.312252 -0.134287 25.6029 0.4012 -2.66889 -3.41746 -16.7145 2.03217e-16 0.0 3.88251e-19 17.0365 -37.8878 4.62583 0.2579 34.6191 -0.365869 0.488903 3.98478 11.4406
6.97211 82.8677 -36.0125 -8.4589 2.4702 6.9506 -2.50354 14.8512 -2.34187 2.84698 -6.62161 -0.630527 8.3983 -2.16191 2.22522 -10.4858 -11.1419 0.744547 -0.0 0.0 0.0 -0.0 0.0 0.0 1.30888e-13 -1.15087e-13 1.3656e-14 3.78875 -33.0076 -15.7814 -14.2657 -7.17083 26.0903 -0.00194865 -1.26231 -0.177435 1.14666e-09 -2.2026e-10 -1.45401e-10 1.98119e-09 -3.81792e-10 -2.53741e-10 1.14668e-09 -2.20255e-10 -1.45405e-10 7.73091 5.47488 0.417314 1.14666e-09 -2.20254e-10 -1.45395e-10 2.90554 0.965183 0.102902 1.14667e-09 -2.20254e-10 -1.45397e-10 10.2786 0.731801 0.0259123 1.14666e-09 -2.20253e-10 -1.45384e-10 2.22167 -0.733487 -0.20892 1.30856e-13 -1.15106e-13 1.34195e-14 -35.1075 -25.2546 4.54334 15.8583 -8.5562 -29.3741 0.116557 -9.68946 1.37503 -5.3814e-10 -1.71249e-10 -2.93312e-10 -9.28766e-10 -2.93626e-10 -5.10125e-10 -5.38146e-10 -1.71248e-10 -2.93295e-10 -7.73091 5.47488 -0.417314 -5.38139e-10 -1.71246e-10 -2.93312e-10 -2.90554 0.965183 -0.102902 -5.38147e-10 -1.71247e-10 -2.93306e-10 -10.2786 0.731801 -0.0259123 -5.38143e-10 -1.71248e-10 -2.93311e-10 -2.22167 -0.733487 0.20892 -2.03217e-16 0.0 -3.88251e-19 0.549752 -0.668016 -0.563555 -0.140504 26.0275 0.396638 -2.40793 -2.70357 -16.273 2.03217e-16 0.0 3.88251e-19 17.1439 -37.7235 4.50861 0.259434 34.7268 -0.364784 0.53224 3.74673 11.4705
7.04441 82.9642 -35.5318 -8.7507 2.6916 6.9957 -2.92767 14.7466 -2.53534 2.79224 -6.60026 -0.705003 8.37291 -2.15334 2.21654 -9.77252 -10.9457 0.821891 -0.0 0.0 0.0 -0.0 0.0 0.0 5.72938e-14 -1.3815e-13 -6.72234e-14 3.77937 -32.9055 -15.9367 -14.2548 -7.16182 26.0681 -0.00212941 -1.32002 -0.18555 3.95358e-10 -3.47492e-10 -4.36925e-10 6.84172e-10 -6.019e-10 -7.57692e-10 3.95371e-10 -3.47489e-10 -4.36933e-10 7.73091 5.47488 0.417314 3.95358e-10 -3.47488e-10 -4.36922e-10 2.90554 0.965183 0.102902 3.95366e-10 -3.47488e-10 -4.36924e-10 10.2786 0.731801 0.0259123 3.95352e-10 -3.47487e-10 -4.3691e-10 2.22167 -0.733487 -0.20892 5.72846e-14 -1.38161e-13 -6.74253e-14 -35.5429 -25.2226 4.24335 15.8377 -8.53725 -29.3308 0.116486 -9.68614 1.37455 -1.16935e-09 -3.60865e-10 -5.88242e-10 -2.01728e-09 -6.19259e-10 -1.02389e-09 -1.16936e-09 -3.60863e-10 -5.88228e-10 -7.73091 5.47488 -0.417314 -1.16935e-09 -3.60863e-10 -5.88241e-10 -2.90554 0.965183 -0.102902 -1.16936e-09 -3.60863e-10 -5.88237e-10 -10.2786 0.731801 -0.0259123 -1.16935e-09 -3.60863e-10 -5.88245e-10 -2.22167 -0.733487 0.20892 -2.03217e-16 0.0 -3.88251e-19 0.738833 -0.778711 -0.816387 -0.146524 26.4111 0.390893 -2.1489 -1.95009 -15.8516 2.03217e-16 0.0 3.88251e-19 17.2829 -37.5647 4.3601 0.260747 34.8248 -0.363657 0.585228 3.46251 11.5175
7.109 83.0619 -35.0541 -9.0668 2.8986 7.0379 -3.32365 14.6405 -2.71449 2.72698 -6.57071 -0.774966 8.3487 -2.14413 2.2044 -9.06335 -10.7653 0.888597 -0.0 0.0 0.0 -0.0 0.0 0.0 -2.00598e-14 -1.54553e-13 -1.45303e-13 3.75118 -32.7938 -16.1152 -14.2466 -7.15515 26.0516 -0.00230396 -1.37142 -0.192778 -4.28441e-10 -4.35905e-10 -6.92056e-10 -7.38268e-10 -7.54688e-10 -1.19849e-09 -4.28428e-10 -4.35905e-10 -6.92067e-10 7.73091 5.47488 0.417314 -4.28441e-10 -4.35904e-10 -6.92054e-10 2.90554 0.965183 0.102902 -4.28434e-10 -4.35904e-10 -6.92056e-10 10.2786 0.731801 0.0259123 -4.28445e-10 -4.35902e-10 -6.92043e-10 2.22167 -0.733487 -0.20892 -2.00447e-14 -1.54557e-13 -1.45468e-13 -35.9933 -25.1884 3.93614 15.8202 -8.5212 -29.294 0.116128 -9.67136 1.37241 -1.7584e-09 -5.29514e-10 -8.49843e-10 -3.03314e-09 -9.08816e-10 -1.47974e-09 -1.75841e-09 -5.29512e-10 -8.49831e-10 -7.73091 5.47488 -0.417314 -1.7584e-09 -5.29513e-10 -8.49841e-10 -2.90554 0.965183 -0.102902 -1.75841e-09 -5.29513e-10 -8.4984e-10 -10.2786 0.731801 -0.0259123 -1.7584e-09 -5.29511e-10 -8.4985e-10 -2.22167 -0.733487 0.20892 -2.03217e-16 0.0 -3.88251e-19 0.940516 -0.887784 -1.05688 -0.152492 26.7781 0.384747 -1.8952 -1.17062 -15.4443 2.03217e-16 0.0 3.88251e-19 17.4325 -37.3948 4.20362 0.261774 34.9085 -0.362343 0.642139 3.1607 11.5757
7.17365 83.1622 -34.577 -9.3823 3.081 7.0725 -3.73362 14.5412 -2.85748 2.66689 -6.53537 -0.834841 8.33009 -2.12405 2.18961 -8.3812 -10.6176 0.943651 -0.0 0.0 0.0 -0.0 0.0 0.0 -7.39154e-14 -1.66978e-13 -1.87156e-13 3.68542 -32.7172 -16.3193 -14.2365 -7.1469 26.0312 -0.00237711 -1.39202 -0.195674 -1.02546e-09 -4.84163e-10 -7.67516e-10 -1.76943e-09 -8.37831e-10 -1.32853e-09 -1.02545e-09 -4.84163e-10 -7.67528e-10 7.73091 5.47488 0.417314 -1.02546e-09 -4.84163e-10 -7.67516e-10 2.90554 0.965183 0.102902 -1.02545e-09 -4.84163e-10 -7.67517e-10 10.2786 0.731801 0.0259123 -1.02546e-09 -4.84161e-10 -7.67503e-10 2.22167 -0.733487 -0.20892 -7.38859e-14 -1.6698e-13 -1.87305e-13 -36.4545 -25.1374 3.63307 15.8028 -8.50531 -29.2576 0.115083 -9.62896 1.36628 -2.14682e-09 -6.75734e-10 -9.50531e-10 -3.70361e-09 -1.16072e-09 -1.65591e-09 -2.14683e-09 -6.75733e-10 -9.50521e-10 -7.73091 5.47488 -0.417314 -2.14682e-09 -6.75734e-10 -9.50528e-10 -2.90554 0.965183 -0.102902 -2.14683e-09 -6.75734e-10 -9.50529e-10 -10.2786 0.731801 -0.0259123 -2.14682e-09 -6.75732e-10 -9.50541e-10 -2.22167 -0.733487 0.20892 -2.03217e-16 0.0 -3.88251e-19 1.11818 -1.00192 -1.27116 -0.158569 27.1529 0.378994 -1.65011 -0.378779 -15.0448 2.03217e-16 0.0 3.88251e-19 17.5718 -37.1976 4.0624 0.262451 34.9735 -0.360698 0.697043 2.86985 11.639
7.23813 83.2628 -34.1035 -9.6911 3.2392 7.103 -4.15567 14.4485 -2.94925 2.61237 -6.48877 -0.88035 8.31913 -2.09019 2.16979 -7.73251 -10.5139 0.980448 -0.0 0.0 0.0 -0.0 0.0 0.0 -1.05147e-13 -1.7449e-13 -1.769e-13 3.56677 -32.6952 -16.5657 -14.2215 -7.13462 26.0009 -0.00226009 -1.35929 -0.191072 -1.44909e-09 -4.8712e-10 -5.37138e-10 -2.50193e-09 -8.42148e-10 -9.29425e-10 -1.44908e-09 -4.87119e-10 -5.3715e-10 7.73091 5.47488 0.417314 -1.44909e-09 -4.87119e-10 -5.37138e-10 2.90554 0.965183 0.102902 -1.44909e-09 -4.87119e-10 -5.37139e-10 10.2786 0.731801 0.0259123 -1.4491e-09 -4.87117e-10 -5.37123e-10 2.22167 -0.733487 -0.20892 -1.05116e-13 -1.74501e-13 -1.77062e-13 -36.9384 -25.0628 3.31842 15.7846 -8.48862 -29.2193 0.113001 -9.54369 1.35394 -2.33168e-09 -8.49027e-10 -7.86071e-10 -4.02461e-09 -1.46119e-09 -1.37185e-09 -2.33169e-09 -8.49026e-10 -7.86062e-10 -7.73091 5.47488 -0.417314 -2.33168e-09 -8.49028e-10 -7.86068e-10 -2.90554 0.965183 -0.102902 -2.33169e-09 -8.49028e-10 -7.86068e-10 -10.2786 0.731801 -0.0259123 -2.33168e-09 -8.49024e-10 -7.86081e-10 -2.22167 -0.733487 0.20892 -2.03217e-16 0.0 -3.88251e-19 1.27316 -1.12021 -1.45241 -0.164733 27.5338 0.373614 -1.41314 0.426401 -14.6511 2.03217e-16 0.0 3.88251e-19 17.7077 -36.9691 3.94331 0.262785 35.0205 -0.358804 0.74938 2.59249 11.707
7.30921 83.3639 -33.6307 -9.9706 3.3731 7.1251 -4.57135 14.3589 -3.00462 2.55631 -6.43167 -0.915396 8.31318 -2.04805 2.14538 -7.10465 -10.4431 1.00169 -0.0 0.0 0.0 -0.0 0.0 0.0 -1.25576e-13 -1.7621e-13 -1.34686e-13 3.40812 -32.7009 -16.8481 -14.2047 -7.12086 25.9669 -0.00203551 -1.29163 -0.181557 -1.81455e-09 -4.47085e-10 -1.06658e-10 -3.13452e-09 -7.71733e-10 -1.84019e-10 -1.81454e-09 -4.47082e-10 -1.06668e-10 7.73091 5.47488 0.417314 -1.81455e-09 -4.47082e-10 -1.06657e-10 2.90554 0.965183 0.102902 -1.81454e-09 -4.47082e-10 -1.06657e-10 10.2786 0.731801 0.0259123 -1.81456e-09 -4.47081e-10 -1.0664e-10 2.22167 -0.733487 -0.20892 -1.25553e-13 -1.76235e-13 -1.34878e-13 -37.4426 -24.9732 2.9926 15.7671 -8.47266 -29.1826 0.110229 -9.4278 1.3372 -2.38439e-09 -1.03354e-09 -4.47911e-10 -4.11872e-09 -1.78219e-09 -7.86286e-10 -2.3844e-09 -1.03354e-09 -4.47904e-10 -7.73091 5.47488 -0.417314 -2.38439e-09 -1.03354e-09 -4.47909e-10 -2.90554 0.965183 -0.102902 -2.3844e-09 -1.03354e-09 -4.47908e-10 -10.2786 0.731801 -0.0259123 -2.38439e-09 -1.03354e-09 -4.47922e-10 -2.22167 -0.733487 0.20892 -2.03217e-16 0.0 -3.88251e-19 1.42151 -1.23998 -1.60907 -0.170923 27.9106 0.368262 -1.183 1.25045 -14.2667 2.03217e-16 0.0 3.88251e-19 17.8472 -36.7179 3.83384 0.262804 35.0512 -0.356698 0.802165 2.31515 11.7826
7.38784 83.4646 -33.1609 -10.2096 3.4908 7.1422 -4.99794 14.2755 -3.04655 2.50314 -6.37583 -0.946682 8.30968 -2.00008 2.12142 -6.492 -10.3878 1.02032 -0.0 0.0 0.0 -0.0 0.0 0.0 -1.24372e-13 -1.74898e-13 -8.11364e-14 3.23274 -32.7099 -17.134 -14.1905 -7.10921 25.9382 -0.00183871 -1.22591 -0.172317 -1.91529e-09 -3.73904e-10 3.19352e-10 -3.30978e-09 -6.44172e-10 5.53457e-10 -1.91529e-09 -3.73898e-10 3.19344e-10 7.73091 5.47488 0.417314 -1.9153e-09 -3.73899e-10 3.19354e-10 2.90554 0.965183 0.102902 -1.91529e-09 -3.73898e-10 3.19355e-10 10.2786 0.731801 0.0259123 -1.9153e-09 -3.73898e-10 3.19373e-10 2.22167 -0.733487 -0.20892 -1.24358e-13 -1.74937e-13 -8.13623e-14 -37.9407 -24.8774 2.69111 15.7516 -8.45849 -29.1501 0.107392 -9.30644 1.31967 -2.25799e-09 -1.12979e-09 -1.01995e-10 -3.90318e-09 -1.95075e-09 -1.86448e-10 -2.258e-09 -1.12979e-09 -1.01987e-10 -7.73091 5.47488 -0.417314 -2.25799e-09 -1.12979e-09 -1.01993e-10 -2.90554 0.965183 -0.102902 -2.258e-09 -1.12979e-09 -1.01991e-10 -10.2786 0.731801 -0.0259123 -2.25799e-09 -1.12979e-09 -1.02004e-10 -2.22167 -0.733487 0.20892 -2.03217e-16 0.0 -3.88251e-19 1.54862 -1.3653 -1.75015 -0.177254 28.2947 0.363248 -0.961538 2.08655 -13.893 2.03217e-16 0.0 3.88251e-19 17.9697 -36.4467 3.72804 0.262475 35.0628 -0.354167 0.854602 2.04223 11.8642
